Coordinates
version=1
nRows=24
nColumns=38
inDegrees=no

Units are S.I. units (second, meters, Newtons, ...)
If the header above contains a line with 'inDegrees', this indicates whether rotational values are in degrees (yes) or radians (no).

endheader
time	pelvis_tilt	pelvis_list	pelvis_rotation	pelvis_tx	pelvis_ty	pelvis_tz	hip_flexion_r	hip_adduction_r	hip_rotation_r	knee_angle_r	ankle_angle_r	subtalar_angle_r	mtp_angle_r	hip_flexion_l	hip_adduction_l	hip_rotation_l	knee_angle_l	ankle_angle_l	subtalar_angle_l	mtp_angle_l	lumbar_extension	lumbar_bending	lumbar_rotation	arm_flex_r	arm_add_r	arm_rot_r	elbow_flex_r	pro_sup_r	wrist_flex_r	wrist_dev_r	arm_flex_l	arm_add_l	arm_rot_l	elbow_flex_l	pro_sup_l	wrist_flex_l	wrist_dev_l
1.62	3.13603	1.24822	-1.47559	0.62947	0.67836	0.957794	-0.488303	0.0514555	-0.236316	0.288109	-0.121924	0	0	0.0902257	-0.13309	-0.358819	0.558881	-0.266047	0	0	-0.447707	0.0353131	-0.198905	0.369504	-0.307555	0.708555	0.795301	1.31802	0	0	-0.313118	-0.313957	0.00962527	1.03694	1.5708	0	0
1.63	3.13329	1.26213	-1.46546	0.628298	0.686918	0.955522	-0.481924	0.0536309	-0.239128	0.293931	-0.113476	0	0	0.0953281	-0.110973	-0.313841	0.47138	-0.270541	0	0	-0.435028	0.0380418	-0.201078	0.371011	-0.304358	0.70031	0.793246	1.32485	0	0	-0.308426	-0.312184	0.0118709	1.02919	1.5708	0	0
1.64	3.12682	1.2743	-1.45253	0.627039	0.695712	0.953181	-0.476961	0.0562104	-0.242475	0.301765	-0.10493	0	0	0.0978916	-0.0939653	-0.274904	0.391825	-0.27487	0	0	-0.423715	0.0416146	-0.202365	0.371154	-0.30225	0.691902	0.793211	1.33117	0	0	-0.30491	-0.31013	0.0140333	1.02296	1.5708	0	0
1.65	3.11739	1.28382	-1.43802	0.625737	0.704733	0.95088	-0.474212	0.0589429	-0.246086	0.311261	-0.0973112	0	0	0.100444	-0.0832516	-0.250063	0.329524	-0.274674	0	0	-0.414708	0.0456664	-0.202787	0.371331	-0.301625	0.686295	0.794763	1.33704	0	0	-0.302865	-0.307349	0.0148709	1.01868	1.5708	0	0
1.66	3.10761	1.29151	-1.42444	0.624504	0.713878	0.948753	-0.472411	0.0608743	-0.24888	0.321936	-0.0908581	0	0	0.101074	-0.0747929	-0.23003	0.275464	-0.272433	0	0	-0.407403	0.0493083	-0.202233	0.371507	-0.301039	0.68144	0.795812	1.34376	0	0	-0.301053	-0.304506	0.0157121	1.01474	1.5708	0	0
1.67	3.09834	1.2977	-1.41255	0.623396	0.723174	0.946853	-0.471895	0.0623523	-0.250145	0.332605	-0.0856864	0	0	0.0991432	-0.0676521	-0.211533	0.227105	-0.271034	0	0	-0.401543	0.0522637	-0.200602	0.37124	-0.300191	0.676966	0.796016	1.35136	0	0	-0.299232	-0.301901	0.0170841	1.01074	1.5708	0	0
1.68	3.09169	1.30194	-1.40502	0.622521	0.732623	0.945267	-0.473956	0.0629576	-0.248186	0.341193	-0.082973	0	0	0.0954297	-0.0621498	-0.197867	0.18939	-0.271358	0	0	-0.397823	0.0537372	-0.197593	0.37019	-0.298268	0.671819	0.795433	1.35593	0	0	-0.297417	-0.299966	0.0191151	1.00673	1.5708	0	0
1.69	3.08787	1.30358	-1.40196	0.621859	0.74226	0.943994	-0.47805	0.0621352	-0.24677	0.351869	-0.0816666	0	0	0.0906563	-0.0584606	-0.190111	0.167064	-0.272828	0	0	-0.396749	0.0539009	-0.193563	0.368923	-0.295901	0.667412	0.794385	1.35929	0	0	-0.296222	-0.298476	0.02098	1.00332	1.5708	0	0
1.7	3.08808	1.30323	-1.40326	0.621266	0.752126	0.942994	-0.483805	0.0597714	-0.247234	0.363838	-0.0821057	0	0	0.0866587	-0.0558245	-0.187863	0.163173	-0.274386	0	0	-0.397565	0.0528439	-0.189761	0.367396	-0.293559	0.664756	0.792897	1.36289	0	0	-0.295888	-0.297489	0.0226693	1.00058	1.5708	0	0
1.71	3.09268	1.30238	-1.40912	0.62059	0.76206	0.942148	-0.490051	0.0561437	-0.247287	0.375636	-0.08365	0	0	0.0857168	-0.0536	-0.192546	0.17827	-0.275138	0	0	-0.39914	0.0505601	-0.186498	0.365555	-0.29114	0.662455	0.791089	1.3675	0	0	-0.296016	-0.29687	0.0246255	0.99825	1.5708	0	0
1.72	3.09961	1.3019	-1.41776	0.619837	0.772186	0.941389	-0.496539	0.0520103	-0.244801	0.385596	-0.0867132	0	0	0.0880226	-0.0521861	-0.20425	0.210277	-0.272605	0	0	-0.400228	0.0473813	-0.183446	0.362263	-0.28843	0.659154	0.789333	1.37274	0	0	-0.296682	-0.296451	0.0270899	0.995864	1.5708	0	0
1.73	3.10739	1.30099	-1.42766	0.619064	0.782687	0.940787	-0.50361	0.0473821	-0.241779	0.395565	-0.0917724	0	0	0.0883292	-0.050876	-0.215268	0.246579	-0.267632	0	0	-0.401026	0.043705	-0.18023	0.357099	-0.285784	0.655119	0.788039	1.37663	0	0	-0.298196	-0.296004	0.0296642	0.993284	1.5708	0	0
1.74	3.11517	1.29948	-1.43801	0.618266	0.793574	0.940343	-0.51115	0.0427017	-0.238875	0.405979	-0.0981466	0	0	0.0846296	-0.049181	-0.223254	0.278995	-0.261284	0	0	-0.401482	0.0397757	-0.176846	0.350556	-0.283709	0.652274	0.787089	1.37932	0	0	-0.300616	-0.295544	0.0322164	0.990584	1.5708	0	0
1.75	3.12198	1.29796	-1.4478	0.617387	0.804739	0.940018	-0.518696	0.0382748	-0.235108	0.41607	-0.106329	0	0	0.0786186	-0.0471011	-0.230267	0.304666	-0.253632	0	0	-0.401327	0.0358737	-0.173024	0.342705	-0.282427	0.650038	0.786628	1.3821	0	0	-0.303487	-0.294735	0.0346875	0.987682	1.5708	0	0
1.76	3.12809	1.29766	-1.45697	0.616412	0.81606	0.939768	-0.523599	0.0336062	-0.230476	0.428025	-0.115915	0	0	0.0714809	-0.0433054	-0.233545	0.316929	-0.251862	0	0	-0.399684	0.0319171	-0.168978	0.333589	-0.281644	0.647749	0.786416	1.38455	0	0	-0.306191	-0.293422	0.0370539	0.983876	1.5708	0	0
1.77	3.13436	1.30024	-1.46616	0.615347	0.827503	0.939593	-0.523599	0.0281972	-0.225551	0.443647	-0.128594	0	0	0.0651372	-0.0374008	-0.231535	0.31498	-0.265065	0	0	-0.39477	0.0275556	-0.163753	0.321715	-0.28089	0.642134	0.786067	1.38653	0	0	-0.306911	-0.292111	0.0413498	0.977142	1.5708	0	0
1.78	3.1414	1.30357	-1.47572	0.614205	0.839006	0.93964	-0.522129	0.0224136	-0.220075	0.461564	-0.141737	0	0	0.0575709	-0.0310366	-0.225523	0.305064	-0.289674	0	0	-0.388974	0.0229769	-0.158607	0.308601	-0.279838	0.6355	0.785151	1.38679	0	0	-0.306857	-0.29068	0.0459729	0.968939	1.5708	0	0
1.79	-3.13506	1.3074	-1.48494	0.612989	0.850636	0.939838	-0.517898	0.0159951	-0.214649	0.482452	-0.156602	0	0	0.049309	-0.025546	-0.219121	0.294517	-0.314762	0	0	-0.382272	0.0184871	-0.153449	0.294943	-0.27937	0.629865	0.783949	1.38789	0	0	-0.306673	-0.28895	0.0505176	0.960031	1.5708	0	0
1.8	-3.12959	1.31129	-1.49231	0.611644	0.862316	0.940099	-0.51166	0.00929061	-0.210096	0.506851	-0.173387	0	0	0.0429542	-0.0222559	-0.216771	0.291609	-0.331712	0	0	-0.37508	0.0146361	-0.149121	0.281158	-0.279495	0.625733	0.782826	1.39025	0	0	-0.30683	-0.287387	0.0551463	0.95145	1.5708	0	0
1.81	-3.1265	1.31429	-1.49673	0.610158	0.873994	0.940445	-0.504942	0.00318318	-0.204441	0.53291	-0.191539	0	0	0.0389562	-0.0215282	-0.218511	0.299212	-0.338955	0	0	-0.368697	0.011851	-0.146252	0.267553	-0.279687	0.62272	0.782292	1.39064	0	0	-0.307882	-0.285726	0.058805	0.943931	1.5708	0	0
1.82	-3.12439	1.31736	-1.49947	0.608489	0.885782	0.940913	-0.495803	-0.00355324	-0.199815	0.562917	-0.215627	0	0	0.0383304	-0.0224891	-0.223329	0.317005	-0.341748	0	0	-0.361692	0.00973114	-0.14349	0.25263	-0.280846	0.619884	0.782836	1.38845	0	0	-0.308298	-0.284239	0.0637316	0.935566	1.5708	0	0
1.83	-3.11887	1.31878	-1.50438	0.606648	0.897564	0.941721	-0.487095	-0.0112414	-0.196092	0.594084	-0.243395	0	0	0.0368826	-0.0229602	-0.22798	0.33859	-0.34347	0	0	-0.35626	0.00743902	-0.142491	0.238733	-0.282805	0.620474	0.783081	1.38695	0	0	-0.308436	-0.282884	0.0687864	0.92744	1.5708	0	0
1.84	-3.10689	1.31781	-1.51556	0.604813	0.909165	0.942914	-0.478216	-0.0214353	-0.193486	0.629019	-0.274908	0	0	0.0316751	-0.0213934	-0.231816	0.357637	-0.346284	0	0	-0.353718	0.0035929	-0.142564	0.226737	-0.285058	0.624719	0.782631	1.38713	0	0	-0.308243	-0.282527	0.0741227	0.920264	1.5708	0	0
1.85	-3.08964	1.31527	-1.53203	0.603045	0.92056	0.944306	-0.467799	-0.034084	-0.192674	0.66782	-0.309993	0	0	0.0231893	-0.0177856	-0.234638	0.372646	-0.347331	0	0	-0.353325	-0.00171648	-0.143569	0.215908	-0.287117	0.630859	0.782339	1.38653	0	0	-0.307983	-0.283316	0.079487	0.914537	1.5708	0	0
